<svg xmlns="http://www.w3.org/2000/svg" viewBox="0 0 800 500" width="800" height="500">
  <defs>
    <radialGradient id="vpgrad3" cx="35%" cy="40%" r="70%">
      <stop offset="0%" stop-color="#0f1814" stop-opacity="1"/>
      <stop offset="100%" stop-color="#050807" stop-opacity="1"/>
    </radialGradient>
  </defs>
  <rect width="800" height="500" fill="url(#vpgrad3)"/>
  
  <!-- Grille de points en arrière-plan -->
  <g opacity="0.15" fill="#5eead4">
    <circle cx="100" cy="100" r="1"/><circle cx="200" cy="100" r="1"/><circle cx="300" cy="100" r="1"/>
    <circle cx="500" cy="100" r="1"/><circle cx="600" cy="100" r="1"/><circle cx="700" cy="100" r="1"/>
    <circle cx="100" cy="200" r="1"/><circle cx="200" cy="200" r="1"/><circle cx="300" cy="200" r="1"/>
    <circle cx="500" cy="200" r="1"/><circle cx="600" cy="200" r="1"/><circle cx="700" cy="200" r="1"/>
    <circle cx="100" cy="300" r="1"/><circle cx="200" cy="300" r="1"/><circle cx="300" cy="300" r="1"/>
    <circle cx="500" cy="300" r="1"/><circle cx="600" cy="300" r="1"/><circle cx="700" cy="300" r="1"/>
    <circle cx="100" cy="400" r="1"/><circle cx="200" cy="400" r="1"/><circle cx="300" cy="400" r="1"/>
    <circle cx="500" cy="400" r="1"/><circle cx="600" cy="400" r="1"/><circle cx="700" cy="400" r="1"/>
  </g>
  
  <!-- Grand V central stylisé -->
  <g transform="translate(400, 250)">
    <path d="M -100 -100 L 0 80 L 100 -100" stroke="#5eead4" stroke-width="3" fill="none" stroke-linecap="round" stroke-linejoin="round" opacity="0.9"/>
    <path d="M -100 -100 L 0 80 L 100 -100" stroke="#5eead4" stroke-width="1" fill="none" stroke-linecap="round" stroke-linejoin="round" opacity="0.4" transform="translate(0, 6)"/>
  </g>
  
  <!-- Petits indicateurs financiers en fond -->
  <g font-family="'Courier New', monospace" font-size="9" fill="#5eead4" opacity="0.25">
    <text x="80" y="160">€</text>
    <text x="700" y="180">+12.4%</text>
    <text x="120" y="380">P/L</text>
    <text x="660" y="360">YTD</text>
    <text x="80" y="280">A/P</text>
    <text x="690" y="290">NAV</text>
  </g>
  
  <!-- Title bottom -->
  <text x="400" y="430" font-family="'Courier New', monospace" font-size="28" font-weight="700" fill="#ffffff" text-anchor="middle" letter-spacing="1">VisionPatrimoine</text>
  <text x="400" y="455" font-family="'Courier New', monospace" font-size="11" fill="#5eead4" text-anchor="middle" letter-spacing="3" opacity="0.7">FULL-STACK · WEALTH PILOTING</text>
</svg>
